<svg width="40" height="40" viewBox="0 0 40 40" fill="none" xmlns="http://www.w3.org/2000/svg">
<path d="M6.87866 35.4321C7.76872 36.1879 8.73173 36.8646 9.76768 37.4622C12.8016 39.1541 16.1499 40.0001 19.8128 40.0001C23.4757 40.0001 26.8056 39.1541 29.8025 37.4622C32.8363 35.7334 35.2228 33.3426 36.9617 30.2897C38.7376 27.2369 39.6256 23.7978 39.6256 19.9725C39.6256 16.1472 38.7561 12.7265 37.0172 9.71044C36.4818 8.77044 35.885 7.89496 35.2268 7.08398L28.5692 13.7416C29.5024 15.466 29.969 17.543 29.969 19.9725C29.969 23.3932 29.044 26.115 27.194 28.138C25.3441 30.161 22.8837 31.1725 19.8128 31.1725C17.1931 31.1725 15.0203 30.4538 13.2943 29.0164L6.87866 35.4321Z" fill="#333E48"/>
<path d="M25.7146 10.4805C24.1118 9.34178 22.1445 8.77242 19.8128 8.77242C16.7049 8.77242 14.226 9.78391 12.3761 11.8069C10.5631 13.7931 9.65665 16.5149 9.65665 19.9724C9.65665 22.0821 10.0015 23.926 10.6911 25.504L3.91928 32.2758C3.45055 31.6482 3.01359 30.9862 2.60841 30.2897C0.869469 27.2368 0 23.7977 0 19.9724C0 16.1471 0.869469 12.7264 2.60841 9.71034C4.38434 6.65747 6.77076 4.28506 9.76765 2.59311C12.8015 0.864369 16.1499 0 19.8128 0C23.5127 0 26.861 0.864369 29.8579 2.59311C30.6577 3.0391 31.4124 3.53238 32.1222 4.07295L25.7146 10.4805Z" fill="#FF3D3D"/>
</svg>
